<mxfile host="65bd71144e">
    <diagram id="pqvxhkpArTvSjxSy0hgP" name="第 1 页">
        <mxGraphModel dx="1160" dy="802" grid="1" gridSize="10" guides="1" tooltips="1" connect="1" arrows="1" fold="1" page="1" pageScale="1" pageWidth="827" pageHeight="1169" background="#000000" math="0" shadow="1">
            <root>
                <mxCell id="0"/>
                <mxCell id="1" parent="0"/>
                <mxCell id="3" value="" style="rounded=1;whiteSpace=wrap;html=1;sketch=1;curveFitting=1;jiggle=2;" parent="1" vertex="1">
                    <mxGeometry x="121.25" y="28.810000000000002" width="270" height="150" as="geometry"/>
                </mxCell>
                <mxCell id="4" value="主线程" style="text;strokeColor=none;align=center;fillColor=none;html=1;verticalAlign=middle;whiteSpace=wrap;rounded=1;sketch=1;curveFitting=1;jiggle=2;" parent="1" vertex="1">
                    <mxGeometry x="131.25" y="38.81" width="60" height="30" as="geometry"/>
                </mxCell>
                <mxCell id="21" value="" style="ellipse;whiteSpace=wrap;html=1;rounded=1;sketch=1;curveFitting=1;jiggle=2;" parent="1" vertex="1">
                    <mxGeometry x="131.25" y="95.12" width="80" height="60" as="geometry"/>
                </mxCell>
                <mxCell id="22" value="&lt;font style=&quot;font-size: 10px;&quot;&gt;MainReactor&lt;/font&gt;" style="text;strokeColor=none;align=center;fillColor=none;html=1;verticalAlign=middle;whiteSpace=wrap;rounded=1;fontSize=9;sketch=1;curveFitting=1;jiggle=2;" parent="1" vertex="1">
                    <mxGeometry x="131.25" y="95.12" width="80" height="30" as="geometry"/>
                </mxCell>
                <mxCell id="23" value="" style="rounded=1;whiteSpace=wrap;html=1;fontSize=9;sketch=1;curveFitting=1;jiggle=2;" parent="1" vertex="1">
                    <mxGeometry x="151.25" y="120.12" width="42.5" height="20" as="geometry"/>
                </mxCell>
                <mxCell id="24" value="&lt;font style=&quot;font-size: 10px;&quot;&gt;EPOLL&lt;/font&gt;" style="text;html=1;align=center;verticalAlign=middle;resizable=0;points=[];autosize=1;strokeColor=none;fillColor=none;fontSize=9;rounded=1;sketch=1;curveFitting=1;jiggle=2;" parent="1" vertex="1">
                    <mxGeometry x="142.5" y="115.12" width="60" height="30" as="geometry"/>
                </mxCell>
                <mxCell id="25" value="" style="endArrow=classic;html=1;fontSize=9;exitX=0.954;exitY=0.67;exitDx=0;exitDy=0;exitPerimeter=0;rounded=1;sketch=1;curveFitting=1;jiggle=2;" parent="1" source="21" target="27" edge="1">
                    <mxGeometry relative="1" as="geometry">
                        <mxPoint x="221.25000000000003" y="224.31000000000006" as="sourcePoint"/>
                        <mxPoint x="370.53" y="198.81" as="targetPoint"/>
                    </mxGeometry>
                </mxCell>
                <mxCell id="26" value="连接事件" style="edgeLabel;resizable=0;html=1;align=center;verticalAlign=middle;fontSize=9;rounded=1;sketch=1;curveFitting=1;jiggle=2;" parent="25" connectable="0" vertex="1">
                    <mxGeometry relative="1" as="geometry"/>
                </mxCell>
                <mxCell id="27" value="" style="ellipse;whiteSpace=wrap;html=1;fontSize=9;rounded=1;sketch=1;curveFitting=1;jiggle=2;" parent="1" vertex="1">
                    <mxGeometry x="285.52" y="105.12" width="80" height="60" as="geometry"/>
                </mxCell>
                <mxCell id="28" value="" style="ellipse;whiteSpace=wrap;html=1;fontSize=9;rounded=1;sketch=1;curveFitting=1;jiggle=2;" parent="1" vertex="1">
                    <mxGeometry x="281.25" y="38.81" width="87.5" height="60" as="geometry"/>
                </mxCell>
                <mxCell id="29" value="" style="endArrow=classic;html=1;fontSize=9;exitX=1;exitY=0.5;exitDx=0;exitDy=0;entryX=0;entryY=0.5;entryDx=0;entryDy=0;rounded=1;sketch=1;curveFitting=1;jiggle=2;" parent="1" source="21" target="28" edge="1">
                    <mxGeometry relative="1" as="geometry">
                        <mxPoint x="291.25" y="138.81" as="sourcePoint"/>
                        <mxPoint x="391.25" y="138.81" as="targetPoint"/>
                    </mxGeometry>
                </mxCell>
                <mxCell id="30" value="信号事件" style="edgeLabel;resizable=0;html=1;align=center;verticalAlign=middle;fontSize=9;rounded=1;sketch=1;curveFitting=1;jiggle=2;" parent="29" connectable="0" vertex="1">
                    <mxGeometry relative="1" as="geometry"/>
                </mxCell>
                <mxCell id="31" value="&lt;font style=&quot;font-size: 10px;&quot;&gt;Acceptor&lt;/font&gt;" style="text;strokeColor=none;align=center;fillColor=none;html=1;verticalAlign=middle;whiteSpace=wrap;rounded=1;fontSize=9;sketch=1;curveFitting=1;jiggle=2;" parent="1" vertex="1">
                    <mxGeometry x="285.52" y="105.12" width="80" height="30" as="geometry"/>
                </mxCell>
                <mxCell id="33" value="&lt;font style=&quot;font-size: 5px;&quot;&gt;acceptConnection&lt;/font&gt;" style="rounded=1;whiteSpace=wrap;html=1;fontSize=9;sketch=1;curveFitting=1;jiggle=2;" parent="1" vertex="1">
                    <mxGeometry x="303.02" y="130.12" width="45" height="20" as="geometry"/>
                </mxCell>
                <mxCell id="34" value="&lt;font style=&quot;font-size: 10px;&quot;&gt;TimerManager&lt;/font&gt;" style="text;strokeColor=none;align=center;fillColor=none;html=1;verticalAlign=middle;whiteSpace=wrap;rounded=1;fontSize=9;sketch=1;curveFitting=1;jiggle=2;" parent="1" vertex="1">
                    <mxGeometry x="288.75" y="38.81" width="80" height="30" as="geometry"/>
                </mxCell>
                <mxCell id="35" value="&lt;font style=&quot;font-size: 5px;&quot;&gt;handleExpiredEvent&lt;/font&gt;" style="rounded=1;whiteSpace=wrap;html=1;fontSize=9;sketch=1;curveFitting=1;jiggle=2;" parent="1" vertex="1">
                    <mxGeometry x="302.5" y="68.81" width="52.5" height="20" as="geometry"/>
                </mxCell>
                <mxCell id="37" value="&lt;div style=&quot;&quot;&gt;&lt;span style=&quot;background-color: initial;&quot;&gt;&lt;font style=&quot;font-size: 10px;&quot;&gt;线程池&lt;/font&gt;&lt;/span&gt;&lt;/div&gt;" style="rounded=1;whiteSpace=wrap;html=1;fontSize=5;direction=south;align=center;verticalAlign=middle;sketch=1;curveFitting=1;jiggle=2;" parent="1" vertex="1">
                    <mxGeometry x="414" y="220" width="80" height="20" as="geometry"/>
                </mxCell>
                <mxCell id="41" value="" style="endArrow=classic;html=1;fontSize=12;exitX=1;exitY=1;exitDx=0;exitDy=0;rounded=1;sketch=1;curveFitting=1;jiggle=2;" parent="1" source="27" target="37" edge="1">
                    <mxGeometry relative="1" as="geometry">
                        <mxPoint x="394.27" y="236.31" as="sourcePoint"/>
                        <mxPoint x="494.27" y="236.31" as="targetPoint"/>
                    </mxGeometry>
                </mxCell>
                <mxCell id="42" value="建立连接" style="edgeLabel;resizable=0;html=1;align=center;verticalAlign=middle;fontSize=12;rounded=1;sketch=1;curveFitting=1;jiggle=2;" parent="41" connectable="0" vertex="1">
                    <mxGeometry relative="1" as="geometry">
                        <mxPoint x="17" y="12" as="offset"/>
                    </mxGeometry>
                </mxCell>
                <mxCell id="45" value="" style="endArrow=classic;html=1;fontSize=12;exitX=1;exitY=0.75;exitDx=0;exitDy=0;entryX=1;entryY=0.5;entryDx=0;entryDy=0;rounded=1;sketch=1;curveFitting=1;jiggle=2;" parent="1" source="37" target="50" edge="1">
                    <mxGeometry relative="1" as="geometry">
                        <mxPoint x="360" y="270" as="sourcePoint"/>
                        <mxPoint x="280" y="280" as="targetPoint"/>
                    </mxGeometry>
                </mxCell>
                <mxCell id="46" value="子线程" style="edgeLabel;resizable=0;html=1;align=center;verticalAlign=middle;fontSize=12;rounded=1;sketch=1;curveFitting=1;jiggle=2;" parent="45" connectable="0" vertex="1">
                    <mxGeometry relative="1" as="geometry"/>
                </mxCell>
                <mxCell id="47" value="" style="endArrow=classic;html=1;fontSize=12;exitX=1.061;exitY=0.543;exitDx=0;exitDy=0;exitPerimeter=0;entryX=0.5;entryY=0;entryDx=0;entryDy=0;rounded=1;sketch=1;curveFitting=1;jiggle=2;" parent="1" source="37" target="54" edge="1">
                    <mxGeometry relative="1" as="geometry">
                        <mxPoint x="470" y="250" as="sourcePoint"/>
                        <mxPoint x="560" y="280" as="targetPoint"/>
                    </mxGeometry>
                </mxCell>
                <mxCell id="48" value="子线程" style="edgeLabel;resizable=0;html=1;align=center;verticalAlign=middle;fontSize=12;rounded=1;sketch=1;curveFitting=1;jiggle=2;" parent="47" connectable="0" vertex="1">
                    <mxGeometry relative="1" as="geometry"/>
                </mxCell>
                <mxCell id="49" value="" style="ellipse;whiteSpace=wrap;html=1;fontSize=12;rounded=1;sketch=1;curveFitting=1;jiggle=2;" parent="1" vertex="1">
                    <mxGeometry x="210" y="280" width="103.75" height="60" as="geometry"/>
                </mxCell>
                <mxCell id="50" value="&lt;font style=&quot;font-size: 10px;&quot;&gt;SubReactor&lt;/font&gt;" style="text;strokeColor=none;align=center;fillColor=none;html=1;verticalAlign=middle;whiteSpace=wrap;rounded=1;fontSize=9;sketch=1;curveFitting=1;jiggle=2;" parent="1" vertex="1">
                    <mxGeometry x="223.75" y="280" width="80" height="30" as="geometry"/>
                </mxCell>
                <mxCell id="51" value="" style="rounded=1;whiteSpace=wrap;html=1;fontSize=9;sketch=1;curveFitting=1;jiggle=2;" parent="1" vertex="1">
                    <mxGeometry x="241.25" y="310" width="42.5" height="20" as="geometry"/>
                </mxCell>
                <mxCell id="52" value="&lt;font style=&quot;font-size: 10px;&quot;&gt;EPOLL&lt;/font&gt;" style="text;html=1;align=center;verticalAlign=middle;resizable=0;points=[];autosize=1;strokeColor=none;fillColor=none;fontSize=9;rounded=1;sketch=1;curveFitting=1;jiggle=2;" parent="1" vertex="1">
                    <mxGeometry x="232.5" y="305" width="60" height="30" as="geometry"/>
                </mxCell>
                <mxCell id="53" value="" style="ellipse;whiteSpace=wrap;html=1;fontSize=12;rounded=1;sketch=1;curveFitting=1;jiggle=2;" parent="1" vertex="1">
                    <mxGeometry x="500" y="280" width="103.75" height="60" as="geometry"/>
                </mxCell>
                <mxCell id="54" value="&lt;font style=&quot;font-size: 10px;&quot;&gt;SubReactor&lt;/font&gt;" style="text;strokeColor=none;align=center;fillColor=none;html=1;verticalAlign=middle;whiteSpace=wrap;rounded=1;fontSize=9;sketch=1;curveFitting=1;jiggle=2;" parent="1" vertex="1">
                    <mxGeometry x="513.75" y="280" width="80" height="30" as="geometry"/>
                </mxCell>
                <mxCell id="55" value="" style="rounded=1;whiteSpace=wrap;html=1;fontSize=9;sketch=1;curveFitting=1;jiggle=2;" parent="1" vertex="1">
                    <mxGeometry x="531.25" y="310" width="42.5" height="20" as="geometry"/>
                </mxCell>
                <mxCell id="56" value="&lt;font style=&quot;font-size: 10px;&quot;&gt;EPOLL&lt;/font&gt;" style="text;html=1;align=center;verticalAlign=middle;resizable=0;points=[];autosize=1;strokeColor=none;fillColor=none;fontSize=9;rounded=1;sketch=1;curveFitting=1;jiggle=2;" parent="1" vertex="1">
                    <mxGeometry x="522.5" y="305" width="60" height="30" as="geometry"/>
                </mxCell>
                <mxCell id="58" value="处理请求" style="endArrow=classic;html=1;fontSize=12;exitX=0;exitY=0.5;exitDx=0;exitDy=0;entryX=0.01;entryY=0.406;entryDx=0;entryDy=0;entryPerimeter=0;rounded=1;sketch=1;curveFitting=1;jiggle=2;" parent="1" source="49" target="60" edge="1">
                    <mxGeometry relative="1" as="geometry">
                        <mxPoint x="360" y="310" as="sourcePoint"/>
                        <mxPoint x="160" y="360" as="targetPoint"/>
                    </mxGeometry>
                </mxCell>
                <mxCell id="60" value="" style="ellipse;whiteSpace=wrap;html=1;fontSize=12;rounded=1;sketch=1;curveFitting=1;jiggle=2;" parent="1" vertex="1">
                    <mxGeometry x="154" y="360" width="260" height="40" as="geometry"/>
                </mxCell>
                <mxCell id="61" value="&lt;font style=&quot;font-size: 10px;&quot;&gt;Read&lt;/font&gt;" style="rounded=1;whiteSpace=wrap;html=1;fontSize=12;sketch=1;curveFitting=1;jiggle=2;" parent="1" vertex="1">
                    <mxGeometry x="180" y="370" width="40" height="20" as="geometry"/>
                </mxCell>
                <mxCell id="62" value="" style="endArrow=classic;html=1;fontSize=10;exitX=1;exitY=0.5;exitDx=0;exitDy=0;entryX=0;entryY=0.5;entryDx=0;entryDy=0;rounded=1;sketch=1;curveFitting=1;jiggle=2;" parent="1" source="61" target="63" edge="1">
                    <mxGeometry width="50" height="50" relative="1" as="geometry">
                        <mxPoint x="380" y="340" as="sourcePoint"/>
                        <mxPoint x="430" y="290" as="targetPoint"/>
                    </mxGeometry>
                </mxCell>
                <mxCell id="63" value="&lt;font style=&quot;font-size: 10px;&quot;&gt;业务处理逻辑&lt;/font&gt;" style="rounded=1;whiteSpace=wrap;html=1;fontSize=12;sketch=1;curveFitting=1;jiggle=2;" parent="1" vertex="1">
                    <mxGeometry x="247.5" y="370" width="72.5" height="20" as="geometry"/>
                </mxCell>
                <mxCell id="64" value="&lt;font style=&quot;font-size: 10px;&quot;&gt;Write&lt;/font&gt;" style="rounded=1;whiteSpace=wrap;html=1;fontSize=12;sketch=1;curveFitting=1;jiggle=2;" parent="1" vertex="1">
                    <mxGeometry x="346.77" y="370" width="40" height="20" as="geometry"/>
                </mxCell>
                <mxCell id="65" value="" style="endArrow=classic;html=1;fontSize=10;exitX=1;exitY=0.5;exitDx=0;exitDy=0;entryX=0;entryY=0.5;entryDx=0;entryDy=0;rounded=1;sketch=1;curveFitting=1;jiggle=2;" parent="1" edge="1">
                    <mxGeometry width="50" height="50" relative="1" as="geometry">
                        <mxPoint x="319.27" y="379.72" as="sourcePoint"/>
                        <mxPoint x="346.77" y="379.72" as="targetPoint"/>
                    </mxGeometry>
                </mxCell>
                <mxCell id="66" value="" style="ellipse;whiteSpace=wrap;html=1;fontSize=12;rounded=1;sketch=1;curveFitting=1;jiggle=2;" parent="1" vertex="1">
                    <mxGeometry x="154" y="400" width="260" height="40" as="geometry"/>
                </mxCell>
                <mxCell id="67" value="&lt;font style=&quot;font-size: 10px;&quot;&gt;Read&lt;/font&gt;" style="rounded=1;whiteSpace=wrap;html=1;fontSize=12;sketch=1;curveFitting=1;jiggle=2;" parent="1" vertex="1">
                    <mxGeometry x="180" y="410" width="40" height="20" as="geometry"/>
                </mxCell>
                <mxCell id="68" value="" style="endArrow=classic;html=1;fontSize=10;exitX=1;exitY=0.5;exitDx=0;exitDy=0;entryX=0;entryY=0.5;entryDx=0;entryDy=0;rounded=1;sketch=1;curveFitting=1;jiggle=2;" parent="1" source="67" target="69" edge="1">
                    <mxGeometry width="50" height="50" relative="1" as="geometry">
                        <mxPoint x="380" y="380" as="sourcePoint"/>
                        <mxPoint x="430" y="330" as="targetPoint"/>
                    </mxGeometry>
                </mxCell>
                <mxCell id="69" value="&lt;font style=&quot;font-size: 10px;&quot;&gt;业务处理逻辑&lt;/font&gt;" style="rounded=1;whiteSpace=wrap;html=1;fontSize=12;sketch=1;curveFitting=1;jiggle=2;" parent="1" vertex="1">
                    <mxGeometry x="247.5" y="410" width="72.5" height="20" as="geometry"/>
                </mxCell>
                <mxCell id="70" value="&lt;font style=&quot;font-size: 10px;&quot;&gt;Write&lt;/font&gt;" style="rounded=1;whiteSpace=wrap;html=1;fontSize=12;sketch=1;curveFitting=1;jiggle=2;" parent="1" vertex="1">
                    <mxGeometry x="346.77" y="410" width="40" height="20" as="geometry"/>
                </mxCell>
                <mxCell id="71" value="" style="endArrow=classic;html=1;fontSize=10;exitX=1;exitY=0.5;exitDx=0;exitDy=0;entryX=0;entryY=0.5;entryDx=0;entryDy=0;rounded=1;sketch=1;curveFitting=1;jiggle=2;" parent="1" edge="1">
                    <mxGeometry width="50" height="50" relative="1" as="geometry">
                        <mxPoint x="319.27" y="419.72" as="sourcePoint"/>
                        <mxPoint x="346.77" y="419.72" as="targetPoint"/>
                    </mxGeometry>
                </mxCell>
                <mxCell id="72" value="" style="ellipse;whiteSpace=wrap;html=1;fontSize=12;rounded=1;sketch=1;curveFitting=1;jiggle=2;" parent="1" vertex="1">
                    <mxGeometry x="154" y="440" width="260" height="40" as="geometry"/>
                </mxCell>
                <mxCell id="73" value="&lt;font style=&quot;font-size: 10px;&quot;&gt;Read&lt;/font&gt;" style="rounded=1;whiteSpace=wrap;html=1;fontSize=12;sketch=1;curveFitting=1;jiggle=2;" parent="1" vertex="1">
                    <mxGeometry x="180" y="450" width="40" height="20" as="geometry"/>
                </mxCell>
                <mxCell id="74" value="" style="endArrow=classic;html=1;fontSize=10;exitX=1;exitY=0.5;exitDx=0;exitDy=0;entryX=0;entryY=0.5;entryDx=0;entryDy=0;rounded=1;sketch=1;curveFitting=1;jiggle=2;" parent="1" source="73" target="75" edge="1">
                    <mxGeometry width="50" height="50" relative="1" as="geometry">
                        <mxPoint x="380" y="420" as="sourcePoint"/>
                        <mxPoint x="430" y="370" as="targetPoint"/>
                    </mxGeometry>
                </mxCell>
                <mxCell id="75" value="&lt;font style=&quot;font-size: 10px;&quot;&gt;业务处理逻辑&lt;/font&gt;" style="rounded=1;whiteSpace=wrap;html=1;fontSize=12;sketch=1;curveFitting=1;jiggle=2;" parent="1" vertex="1">
                    <mxGeometry x="247.5" y="450" width="72.5" height="20" as="geometry"/>
                </mxCell>
                <mxCell id="76" value="&lt;font style=&quot;font-size: 10px;&quot;&gt;Write&lt;/font&gt;" style="rounded=1;whiteSpace=wrap;html=1;fontSize=12;sketch=1;curveFitting=1;jiggle=2;" parent="1" vertex="1">
                    <mxGeometry x="346.77" y="450" width="40" height="20" as="geometry"/>
                </mxCell>
                <mxCell id="77" value="" style="endArrow=classic;html=1;fontSize=10;exitX=1;exitY=0.5;exitDx=0;exitDy=0;entryX=0;entryY=0.5;entryDx=0;entryDy=0;rounded=1;sketch=1;curveFitting=1;jiggle=2;" parent="1" edge="1">
                    <mxGeometry width="50" height="50" relative="1" as="geometry">
                        <mxPoint x="319.27" y="459.72" as="sourcePoint"/>
                        <mxPoint x="346.77" y="459.72" as="targetPoint"/>
                    </mxGeometry>
                </mxCell>
                <mxCell id="78" value="处理请求" style="endArrow=classic;html=1;fontSize=12;exitX=0;exitY=0.5;exitDx=0;exitDy=0;entryX=0;entryY=0.5;entryDx=0;entryDy=0;rounded=1;sketch=1;curveFitting=1;jiggle=2;" parent="1" source="49" target="66" edge="1">
                    <mxGeometry relative="1" as="geometry">
                        <mxPoint x="220.00000000000136" y="320" as="sourcePoint"/>
                        <mxPoint x="166.60000000000002" y="386.2399999999999" as="targetPoint"/>
                    </mxGeometry>
                </mxCell>
                <mxCell id="79" value="处理请求" style="endArrow=classic;html=1;fontSize=12;exitX=-0.028;exitY=0.585;exitDx=0;exitDy=0;entryX=0;entryY=0.5;entryDx=0;entryDy=0;exitPerimeter=0;rounded=1;sketch=1;curveFitting=1;jiggle=2;" parent="1" source="49" target="72" edge="1">
                    <mxGeometry relative="1" as="geometry">
                        <mxPoint x="230.00000000000136" y="330" as="sourcePoint"/>
                        <mxPoint x="164.00000000000068" y="430" as="targetPoint"/>
                    </mxGeometry>
                </mxCell>
                <mxCell id="80" value="" style="ellipse;whiteSpace=wrap;html=1;fontSize=12;rounded=1;sketch=1;curveFitting=1;jiggle=2;" parent="1" vertex="1">
                    <mxGeometry x="540" y="360" width="260" height="40" as="geometry"/>
                </mxCell>
                <mxCell id="81" value="&lt;font style=&quot;font-size: 10px;&quot;&gt;Read&lt;/font&gt;" style="rounded=1;whiteSpace=wrap;html=1;fontSize=12;sketch=1;curveFitting=1;jiggle=2;" parent="1" vertex="1">
                    <mxGeometry x="566" y="370" width="40" height="20" as="geometry"/>
                </mxCell>
                <mxCell id="82" value="" style="endArrow=classic;html=1;fontSize=10;exitX=1;exitY=0.5;exitDx=0;exitDy=0;entryX=0;entryY=0.5;entryDx=0;entryDy=0;rounded=1;sketch=1;curveFitting=1;jiggle=2;" parent="1" source="81" target="83" edge="1">
                    <mxGeometry width="50" height="50" relative="1" as="geometry">
                        <mxPoint x="766" y="340" as="sourcePoint"/>
                        <mxPoint x="816" y="290" as="targetPoint"/>
                    </mxGeometry>
                </mxCell>
                <mxCell id="83" value="&lt;font style=&quot;font-size: 10px;&quot;&gt;业务处理逻辑&lt;/font&gt;" style="rounded=1;whiteSpace=wrap;html=1;fontSize=12;sketch=1;curveFitting=1;jiggle=2;" parent="1" vertex="1">
                    <mxGeometry x="633.5" y="370" width="72.5" height="20" as="geometry"/>
                </mxCell>
                <mxCell id="84" value="&lt;font style=&quot;font-size: 10px;&quot;&gt;Write&lt;/font&gt;" style="rounded=1;whiteSpace=wrap;html=1;fontSize=12;sketch=1;curveFitting=1;jiggle=2;" parent="1" vertex="1">
                    <mxGeometry x="732.77" y="370" width="40" height="20" as="geometry"/>
                </mxCell>
                <mxCell id="85" value="" style="endArrow=classic;html=1;fontSize=10;exitX=1;exitY=0.5;exitDx=0;exitDy=0;entryX=0;entryY=0.5;entryDx=0;entryDy=0;rounded=1;sketch=1;curveFitting=1;jiggle=2;" parent="1" edge="1">
                    <mxGeometry width="50" height="50" relative="1" as="geometry">
                        <mxPoint x="705.27" y="379.72" as="sourcePoint"/>
                        <mxPoint x="732.77" y="379.72" as="targetPoint"/>
                    </mxGeometry>
                </mxCell>
                <mxCell id="86" value="" style="ellipse;whiteSpace=wrap;html=1;fontSize=12;rounded=1;sketch=1;curveFitting=1;jiggle=2;" parent="1" vertex="1">
                    <mxGeometry x="539.75" y="400" width="260" height="40" as="geometry"/>
                </mxCell>
                <mxCell id="87" value="&lt;font style=&quot;font-size: 10px;&quot;&gt;Read&lt;/font&gt;" style="rounded=1;whiteSpace=wrap;html=1;fontSize=12;sketch=1;curveFitting=1;jiggle=2;" parent="1" vertex="1">
                    <mxGeometry x="565.75" y="410" width="40" height="20" as="geometry"/>
                </mxCell>
                <mxCell id="88" value="" style="endArrow=classic;html=1;fontSize=10;exitX=1;exitY=0.5;exitDx=0;exitDy=0;entryX=0;entryY=0.5;entryDx=0;entryDy=0;rounded=1;sketch=1;curveFitting=1;jiggle=2;" parent="1" source="87" target="89" edge="1">
                    <mxGeometry width="50" height="50" relative="1" as="geometry">
                        <mxPoint x="765.75" y="380" as="sourcePoint"/>
                        <mxPoint x="815.75" y="330" as="targetPoint"/>
                    </mxGeometry>
                </mxCell>
                <mxCell id="89" value="&lt;font style=&quot;font-size: 10px;&quot;&gt;业务处理逻辑&lt;/font&gt;" style="rounded=1;whiteSpace=wrap;html=1;fontSize=12;sketch=1;curveFitting=1;jiggle=2;" parent="1" vertex="1">
                    <mxGeometry x="633.25" y="410" width="72.5" height="20" as="geometry"/>
                </mxCell>
                <mxCell id="90" value="&lt;font style=&quot;font-size: 10px;&quot;&gt;Write&lt;/font&gt;" style="rounded=1;whiteSpace=wrap;html=1;fontSize=12;sketch=1;curveFitting=1;jiggle=2;" parent="1" vertex="1">
                    <mxGeometry x="732.52" y="410" width="40" height="20" as="geometry"/>
                </mxCell>
                <mxCell id="91" value="" style="endArrow=classic;html=1;fontSize=10;exitX=1;exitY=0.5;exitDx=0;exitDy=0;entryX=0;entryY=0.5;entryDx=0;entryDy=0;rounded=1;sketch=1;curveFitting=1;jiggle=2;" parent="1" edge="1">
                    <mxGeometry width="50" height="50" relative="1" as="geometry">
                        <mxPoint x="705.02" y="419.72" as="sourcePoint"/>
                        <mxPoint x="732.52" y="419.72" as="targetPoint"/>
                    </mxGeometry>
                </mxCell>
                <mxCell id="92" value="" style="ellipse;whiteSpace=wrap;html=1;fontSize=12;rounded=1;sketch=1;curveFitting=1;jiggle=2;" parent="1" vertex="1">
                    <mxGeometry x="539.5" y="440" width="260" height="40" as="geometry"/>
                </mxCell>
                <mxCell id="93" value="&lt;font style=&quot;font-size: 10px;&quot;&gt;Read&lt;/font&gt;" style="rounded=1;whiteSpace=wrap;html=1;fontSize=12;sketch=1;curveFitting=1;jiggle=2;" parent="1" vertex="1">
                    <mxGeometry x="565.5" y="450" width="40" height="20" as="geometry"/>
                </mxCell>
                <mxCell id="94" value="" style="endArrow=classic;html=1;fontSize=10;exitX=1;exitY=0.5;exitDx=0;exitDy=0;entryX=0;entryY=0.5;entryDx=0;entryDy=0;rounded=1;sketch=1;curveFitting=1;jiggle=2;" parent="1" source="93" target="95" edge="1">
                    <mxGeometry width="50" height="50" relative="1" as="geometry">
                        <mxPoint x="765.5" y="420" as="sourcePoint"/>
                        <mxPoint x="815.5" y="370" as="targetPoint"/>
                    </mxGeometry>
                </mxCell>
                <mxCell id="95" value="&lt;font style=&quot;font-size: 10px;&quot;&gt;业务处理逻辑&lt;/font&gt;" style="rounded=1;whiteSpace=wrap;html=1;fontSize=12;sketch=1;curveFitting=1;jiggle=2;" parent="1" vertex="1">
                    <mxGeometry x="633" y="450" width="72.5" height="20" as="geometry"/>
                </mxCell>
                <mxCell id="96" value="&lt;font style=&quot;font-size: 10px;&quot;&gt;Write&lt;/font&gt;" style="rounded=1;whiteSpace=wrap;html=1;fontSize=12;sketch=1;curveFitting=1;jiggle=2;" parent="1" vertex="1">
                    <mxGeometry x="732.27" y="450" width="40" height="20" as="geometry"/>
                </mxCell>
                <mxCell id="97" value="" style="endArrow=classic;html=1;fontSize=10;exitX=1;exitY=0.5;exitDx=0;exitDy=0;entryX=0;entryY=0.5;entryDx=0;entryDy=0;rounded=1;sketch=1;curveFitting=1;jiggle=2;" parent="1" edge="1">
                    <mxGeometry width="50" height="50" relative="1" as="geometry">
                        <mxPoint x="704.77" y="459.72" as="sourcePoint"/>
                        <mxPoint x="732.27" y="459.72" as="targetPoint"/>
                    </mxGeometry>
                </mxCell>
                <mxCell id="98" value="处理请求" style="endArrow=classic;html=1;fontSize=12;entryX=0;entryY=0.5;entryDx=0;entryDy=0;rounded=1;sketch=1;curveFitting=1;jiggle=2;" parent="1" target="80" edge="1">
                    <mxGeometry relative="1" as="geometry">
                        <mxPoint x="500" y="310" as="sourcePoint"/>
                        <mxPoint x="452.9" y="454.9" as="targetPoint"/>
                    </mxGeometry>
                </mxCell>
                <mxCell id="99" value="处理请求" style="endArrow=classic;html=1;fontSize=12;entryX=0;entryY=0.5;entryDx=0;entryDy=0;exitX=0;exitY=0.5;exitDx=0;exitDy=0;rounded=1;sketch=1;curveFitting=1;jiggle=2;" parent="1" source="53" target="86" edge="1">
                    <mxGeometry relative="1" as="geometry">
                        <mxPoint x="510" y="320" as="sourcePoint"/>
                        <mxPoint x="550" y="390" as="targetPoint"/>
                    </mxGeometry>
                </mxCell>
                <mxCell id="100" value="处理请求" style="endArrow=classic;html=1;fontSize=12;entryX=0;entryY=0.5;entryDx=0;entryDy=0;rounded=1;sketch=1;curveFitting=1;jiggle=2;" parent="1" target="92" edge="1">
                    <mxGeometry relative="1" as="geometry">
                        <mxPoint x="500" y="310" as="sourcePoint"/>
                        <mxPoint x="549.7500000000014" y="430" as="targetPoint"/>
                    </mxGeometry>
                </mxCell>
                <mxCell id="101" value="" style="endArrow=none;dashed=1;html=1;dashPattern=1 3;strokeWidth=2;fontSize=10;entryX=0.999;entryY=0.585;entryDx=0;entryDy=0;exitX=1;exitY=0.5;exitDx=0;exitDy=0;entryPerimeter=0;rounded=1;sketch=1;curveFitting=1;jiggle=2;" parent="1" source="60" target="28" edge="1">
                    <mxGeometry width="50" height="50" relative="1" as="geometry">
                        <mxPoint x="430" y="340" as="sourcePoint"/>
                        <mxPoint x="480" y="290" as="targetPoint"/>
                    </mxGeometry>
                </mxCell>
                <mxCell id="102" value="" style="endArrow=none;dashed=1;html=1;dashPattern=1 3;strokeWidth=2;fontSize=10;entryX=1.013;entryY=0.874;entryDx=0;entryDy=0;exitX=0.996;exitY=0.378;exitDx=0;exitDy=0;exitPerimeter=0;entryPerimeter=0;rounded=1;sketch=1;curveFitting=1;jiggle=2;" parent="1" source="66" target="34" edge="1">
                    <mxGeometry width="50" height="50" relative="1" as="geometry">
                        <mxPoint x="423.9999999999991" y="390" as="sourcePoint"/>
                        <mxPoint x="377.5" y="130" as="targetPoint"/>
                    </mxGeometry>
                </mxCell>
                <mxCell id="103" value="" style="endArrow=none;dashed=1;html=1;dashPattern=1 3;strokeWidth=2;fontSize=10;entryX=1;entryY=1;entryDx=0;entryDy=0;exitX=0.994;exitY=0.6;exitDx=0;exitDy=0;exitPerimeter=0;rounded=1;sketch=1;curveFitting=1;jiggle=2;" parent="1" source="72" target="34" edge="1">
                    <mxGeometry width="50" height="50" relative="1" as="geometry">
                        <mxPoint x="422.9599999999998" y="425.1199999999999" as="sourcePoint"/>
                        <mxPoint x="365.78427124746213" y="151.2132034355966" as="targetPoint"/>
                    </mxGeometry>
                </mxCell>
                <mxCell id="104" value="" style="endArrow=none;dashed=1;html=1;dashPattern=1 3;strokeWidth=2;fontSize=10;exitX=1;exitY=0.5;exitDx=0;exitDy=0;rounded=1;sketch=1;curveFitting=1;jiggle=2;" parent="1" source="80" edge="1">
                    <mxGeometry width="50" height="50" relative="1" as="geometry">
                        <mxPoint x="422.9599999999998" y="425.1199999999999" as="sourcePoint"/>
                        <mxPoint x="370" y="70" as="targetPoint"/>
                    </mxGeometry>
                </mxCell>
                <mxCell id="105" value="" style="endArrow=none;dashed=1;html=1;dashPattern=1 3;strokeWidth=2;fontSize=10;rounded=1;sketch=1;curveFitting=1;jiggle=2;" parent="1" edge="1">
                    <mxGeometry width="50" height="50" relative="1" as="geometry">
                        <mxPoint x="800" y="420" as="sourcePoint"/>
                        <mxPoint x="370" y="70" as="targetPoint"/>
                    </mxGeometry>
                </mxCell>
                <mxCell id="106" value="" style="endArrow=none;dashed=1;html=1;dashPattern=1 3;strokeWidth=2;fontSize=10;exitX=1;exitY=0.5;exitDx=0;exitDy=0;rounded=1;sketch=1;curveFitting=1;jiggle=2;" parent="1" source="92" edge="1">
                    <mxGeometry width="50" height="50" relative="1" as="geometry">
                        <mxPoint x="810" y="430" as="sourcePoint"/>
                        <mxPoint x="370" y="70" as="targetPoint"/>
                    </mxGeometry>
                </mxCell>
                <mxCell id="107" value="" style="ellipse;whiteSpace=wrap;html=1;fontSize=10;rounded=1;sketch=1;curveFitting=1;jiggle=2;" parent="1" vertex="1">
                    <mxGeometry x="176.76999999999998" y="500" width="210" height="60" as="geometry"/>
                </mxCell>
                <mxCell id="108" value="&lt;font style=&quot;font-size: 11px;&quot;&gt;HttpConn&lt;/font&gt;" style="text;strokeColor=none;align=center;fillColor=none;html=1;verticalAlign=middle;whiteSpace=wrap;rounded=1;fontSize=9;sketch=1;curveFitting=1;jiggle=2;" parent="1" vertex="1">
                    <mxGeometry x="251.76999999999998" y="500" width="68.75" height="20" as="geometry"/>
                </mxCell>
                <mxCell id="109" value="&lt;font style=&quot;font-size: 10px;&quot;&gt;processRead&lt;/font&gt;" style="rounded=1;whiteSpace=wrap;html=1;fontSize=12;sketch=1;curveFitting=1;jiggle=2;" parent="1" vertex="1">
                    <mxGeometry x="199.26999999999998" y="520" width="70" height="20" as="geometry"/>
                </mxCell>
                <mxCell id="112" value="&lt;font style=&quot;font-size: 10px;&quot;&gt;processWrite&lt;/font&gt;" style="rounded=1;whiteSpace=wrap;html=1;fontSize=12;sketch=1;curveFitting=1;jiggle=2;" parent="1" vertex="1">
                    <mxGeometry x="303.02" y="520" width="70" height="20" as="geometry"/>
                </mxCell>
                <mxCell id="113" value="" style="endArrow=classic;html=1;fontSize=10;exitX=1;exitY=0.5;exitDx=0;exitDy=0;entryX=0;entryY=0.5;entryDx=0;entryDy=0;rounded=1;sketch=1;curveFitting=1;jiggle=2;" parent="1" source="109" target="112" edge="1">
                    <mxGeometry width="50" height="50" relative="1" as="geometry">
                        <mxPoint x="342.28999999999996" y="529.72" as="sourcePoint"/>
                        <mxPoint x="283.02" y="530" as="targetPoint"/>
                    </mxGeometry>
                </mxCell>
                <mxCell id="114" value="" style="endArrow=classic;html=1;fontSize=11;exitX=0.5;exitY=1;exitDx=0;exitDy=0;entryX=0.5;entryY=0;entryDx=0;entryDy=0;rounded=1;sketch=1;curveFitting=1;jiggle=2;" parent="1" source="75" target="108" edge="1">
                    <mxGeometry width="50" height="50" relative="1" as="geometry">
                        <mxPoint x="340" y="450" as="sourcePoint"/>
                        <mxPoint x="390" y="400" as="targetPoint"/>
                    </mxGeometry>
                </mxCell>
                <mxCell id="122" value="" style="ellipse;whiteSpace=wrap;html=1;fontSize=10;rounded=1;sketch=1;curveFitting=1;jiggle=2;" parent="1" vertex="1">
                    <mxGeometry x="562.27" y="495" width="210" height="60" as="geometry"/>
                </mxCell>
                <mxCell id="123" value="&lt;font style=&quot;font-size: 11px;&quot;&gt;HttpConn&lt;/font&gt;" style="text;strokeColor=none;align=center;fillColor=none;html=1;verticalAlign=middle;whiteSpace=wrap;rounded=1;fontSize=9;sketch=1;curveFitting=1;jiggle=2;" parent="1" vertex="1">
                    <mxGeometry x="637.27" y="495" width="68.75" height="20" as="geometry"/>
                </mxCell>
                <mxCell id="124" value="&lt;font style=&quot;font-size: 10px;&quot;&gt;processRead&lt;/font&gt;" style="rounded=1;whiteSpace=wrap;html=1;fontSize=12;sketch=1;curveFitting=1;jiggle=2;" parent="1" vertex="1">
                    <mxGeometry x="584.77" y="515" width="70" height="20" as="geometry"/>
                </mxCell>
                <mxCell id="125" value="&lt;font style=&quot;font-size: 10px;&quot;&gt;processWrite&lt;/font&gt;" style="rounded=1;whiteSpace=wrap;html=1;fontSize=12;sketch=1;curveFitting=1;jiggle=2;" parent="1" vertex="1">
                    <mxGeometry x="688.52" y="515" width="70" height="20" as="geometry"/>
                </mxCell>
                <mxCell id="126" value="" style="endArrow=classic;html=1;fontSize=10;exitX=1;exitY=0.5;exitDx=0;exitDy=0;entryX=0;entryY=0.5;entryDx=0;entryDy=0;rounded=1;sketch=1;curveFitting=1;jiggle=2;" parent="1" source="124" target="125" edge="1">
                    <mxGeometry width="50" height="50" relative="1" as="geometry">
                        <mxPoint x="727.79" y="524.72" as="sourcePoint"/>
                        <mxPoint x="668.52" y="525" as="targetPoint"/>
                    </mxGeometry>
                </mxCell>
                <mxCell id="127" value="" style="endArrow=classic;html=1;fontSize=11;exitX=0.5;exitY=1;exitDx=0;exitDy=0;entryX=0.5;entryY=0;entryDx=0;entryDy=0;rounded=1;sketch=1;curveFitting=1;jiggle=2;" parent="1" target="123" edge="1">
                    <mxGeometry width="50" height="50" relative="1" as="geometry">
                        <mxPoint x="669.25" y="465" as="sourcePoint"/>
                        <mxPoint x="775.5" y="395" as="targetPoint"/>
                    </mxGeometry>
                </mxCell>
                <mxCell id="128" value="&lt;font style=&quot;font-size: 10px;&quot;&gt;client&lt;/font&gt;" style="ellipse;whiteSpace=wrap;html=1;fontSize=11;rounded=1;sketch=1;curveFitting=1;jiggle=2;" parent="1" vertex="1">
                    <mxGeometry x="10" y="130" width="40" height="20" as="geometry"/>
                </mxCell>
                <mxCell id="134" value="" style="edgeStyle=none;html=1;fontSize=11;entryX=0;entryY=1;entryDx=0;entryDy=0;rounded=1;sketch=1;curveFitting=1;jiggle=2;" parent="1" source="129" target="22" edge="1">
                    <mxGeometry relative="1" as="geometry">
                        <mxPoint x="130" y="140" as="targetPoint"/>
                    </mxGeometry>
                </mxCell>
                <mxCell id="129" value="&lt;font style=&quot;font-size: 10px;&quot;&gt;client&lt;/font&gt;" style="ellipse;whiteSpace=wrap;html=1;fontSize=11;rounded=1;sketch=1;curveFitting=1;jiggle=2;" parent="1" vertex="1">
                    <mxGeometry x="10" y="200" width="40" height="20" as="geometry"/>
                </mxCell>
                <mxCell id="133" value="" style="edgeStyle=none;html=1;fontSize=11;entryX=0;entryY=1;entryDx=0;entryDy=0;rounded=1;sketch=1;curveFitting=1;jiggle=2;" parent="1" source="130" target="22" edge="1">
                    <mxGeometry relative="1" as="geometry">
                        <mxPoint x="130" y="140" as="targetPoint"/>
                    </mxGeometry>
                </mxCell>
                <mxCell id="130" value="&lt;font style=&quot;font-size: 10px;&quot;&gt;client&lt;/font&gt;" style="ellipse;whiteSpace=wrap;html=1;fontSize=11;rounded=1;sketch=1;curveFitting=1;jiggle=2;" parent="1" vertex="1">
                    <mxGeometry x="10" y="166.31" width="40" height="20" as="geometry"/>
                </mxCell>
                <mxCell id="131" value="" style="endArrow=classic;html=1;fontSize=11;exitX=1;exitY=0.5;exitDx=0;exitDy=0;entryX=0;entryY=0.5;entryDx=0;entryDy=0;rounded=1;sketch=1;curveFitting=1;jiggle=2;" parent="1" source="128" target="21" edge="1">
                    <mxGeometry width="50" height="50" relative="1" as="geometry">
                        <mxPoint x="300" y="370" as="sourcePoint"/>
                        <mxPoint x="350" y="320" as="targetPoint"/>
                    </mxGeometry>
                </mxCell>
                <mxCell id="141" value="" style="rounded=1;whiteSpace=wrap;html=1;fontSize=11;fillColor=none;sketch=1;curveFitting=1;jiggle=2;" parent="1" vertex="1">
                    <mxGeometry x="531.25" y="35.12" width="252.73" height="120" as="geometry"/>
                </mxCell>
                <mxCell id="142" value="&lt;font style=&quot;font-size: 12px;&quot;&gt;异步日志系统&lt;/font&gt;" style="text;strokeColor=none;align=center;fillColor=none;html=1;verticalAlign=middle;whiteSpace=wrap;rounded=1;sketch=1;curveFitting=1;jiggle=2;" parent="1" vertex="1">
                    <mxGeometry x="533.98" y="42.62" width="92.5" height="30" as="geometry"/>
                </mxCell>
                <mxCell id="143" value="&lt;font style=&quot;font-size: 10px;&quot;&gt;生产者-消费者模型队列&lt;/font&gt;" style="rounded=1;whiteSpace=wrap;html=1;fontSize=11;fillColor=none;sketch=1;curveFitting=1;jiggle=2;" parent="1" vertex="1">
                    <mxGeometry x="540.1" y="72.62" width="125.25" height="25" as="geometry"/>
                </mxCell>
                <mxCell id="144" value="" style="rounded=1;whiteSpace=wrap;html=1;fontSize=12;fillColor=none;sketch=1;curveFitting=1;jiggle=2;" parent="1" vertex="1">
                    <mxGeometry x="121.25" y="250" width="308.75" height="320" as="geometry"/>
                </mxCell>
                <mxCell id="145" value="" style="rounded=1;whiteSpace=wrap;html=1;fontSize=12;fillColor=none;sketch=1;curveFitting=1;jiggle=2;" parent="1" vertex="1">
                    <mxGeometry x="450" y="250" width="358.75" height="320" as="geometry"/>
                </mxCell>
                <mxCell id="148" value="&lt;font style=&quot;font-size: 10px;&quot;&gt;log文件&lt;/font&gt;" style="rounded=1;whiteSpace=wrap;html=1;fontSize=12;sketch=1;curveFitting=1;jiggle=2;" parent="1" vertex="1">
                    <mxGeometry x="703.98" y="113.93" width="70" height="20" as="geometry"/>
                </mxCell>
                <mxCell id="149" value="" style="endArrow=classic;html=1;fontSize=10;entryX=0;entryY=0.5;entryDx=0;entryDy=0;exitX=1;exitY=0.5;exitDx=0;exitDy=0;rounded=1;sketch=1;curveFitting=1;jiggle=2;" parent="1" source="153" target="148" edge="1">
                    <mxGeometry width="50" height="50" relative="1" as="geometry">
                        <mxPoint x="663.98" y="124.12" as="sourcePoint"/>
                        <mxPoint x="671.48" y="95.12" as="targetPoint"/>
                    </mxGeometry>
                </mxCell>
                <mxCell id="150" value="日志输出" style="endArrow=none;dashed=1;html=1;dashPattern=1 3;strokeWidth=2;fontSize=10;entryX=1.001;entryY=0.125;entryDx=0;entryDy=0;entryPerimeter=0;rounded=1;sketch=1;curveFitting=1;jiggle=2;" parent="1" target="3" edge="1">
                    <mxGeometry width="50" height="50" relative="1" as="geometry">
                        <mxPoint x="530" y="48" as="sourcePoint"/>
                        <mxPoint x="380" y="130" as="targetPoint"/>
                    </mxGeometry>
                </mxCell>
                <mxCell id="151" value="日志输出" style="endArrow=none;dashed=1;html=1;dashPattern=1 3;strokeWidth=2;fontSize=10;rounded=1;sketch=1;curveFitting=1;jiggle=2;entryX=0.524;entryY=-0.006;entryDx=0;entryDy=0;entryPerimeter=0;" parent="1" target="144" edge="1">
                    <mxGeometry x="-0.5213" y="3" width="50" height="50" relative="1" as="geometry">
                        <mxPoint x="530" y="50" as="sourcePoint"/>
                        <mxPoint x="400.27" y="108.75" as="targetPoint"/>
                        <mxPoint as="offset"/>
                    </mxGeometry>
                </mxCell>
                <mxCell id="152" value="日志输出" style="endArrow=none;dashed=1;html=1;dashPattern=1 3;strokeWidth=2;fontSize=10;entryX=0.151;entryY=-0.003;entryDx=0;entryDy=0;entryPerimeter=0;rounded=1;sketch=1;curveFitting=1;jiggle=2;" parent="1" target="145" edge="1">
                    <mxGeometry width="50" height="50" relative="1" as="geometry">
                        <mxPoint x="530" y="50" as="sourcePoint"/>
                        <mxPoint x="510" y="240" as="targetPoint"/>
                        <Array as="points">
                            <mxPoint x="520" y="140"/>
                        </Array>
                    </mxGeometry>
                </mxCell>
                <mxCell id="153" value="&lt;font style=&quot;font-size: 10px;&quot;&gt;单独的线程写日志&lt;/font&gt;" style="rounded=1;whiteSpace=wrap;html=1;fontSize=12;sketch=1;curveFitting=1;jiggle=2;" parent="1" vertex="1">
                    <mxGeometry x="557.98" y="113.93" width="89.5" height="20" as="geometry"/>
                </mxCell>
                <mxCell id="155" value="" style="endArrow=classic;html=1;fontSize=12;exitX=0.5;exitY=1;exitDx=0;exitDy=0;rounded=1;sketch=1;curveFitting=1;jiggle=2;" parent="1" source="143" target="153" edge="1">
                    <mxGeometry width="50" height="50" relative="1" as="geometry">
                        <mxPoint x="403.97999999999996" y="275.12" as="sourcePoint"/>
                        <mxPoint x="453.97999999999996" y="225.12" as="targetPoint"/>
                    </mxGeometry>
                </mxCell>
            </root>
        </mxGraphModel>
    </diagram>
</mxfile>